<?xml version="1.0" ?><!DOCTYPE svg  PUBLIC '-//W3C//DTD SVG 1.1//EN'  'http://www.w3.org/Graphics/SVG/1.1/DTD/svg11.dtd'><svg enable-background="new 0 0 256 256" height="256px" id="Layer_1" version="1.1" viewBox="0 0 256 256" width="256px" xml:space="preserve" xmlns="http://www.w3.org/2000/svg" xmlns:xlink="http://www.w3.org/1999/xlink"><path d="M183.785,171.898l16.052-22.234c1.206-1.67,0.829-4.008-0.843-5.212c-1.676-1.207-4.008-0.831-5.215,0.84  l-16.082,22.276c-0.208,0.292-0.354,0.605-0.471,0.928c-14.801-7.064-31.592-11.071-49.403-11.071  c-17.497,0-34.004,3.871-48.613,10.704c-0.093-0.191-0.196-0.383-0.326-0.561l-16.082-22.276c-1.206-1.671-3.537-2.046-5.212-0.843  c-1.675,1.207-2.051,3.543-0.843,5.215l15.777,21.852c-30.483,16.863-51.208,47.234-52.488,82.17H235.61  C234.34,219.006,213.9,188.833,183.785,171.898z" fill="#B6D152"/><path d="M75.688,182.549c-0.534,0-1.053-0.279-1.34-0.775c-0.423-0.739-0.167-1.682,0.572-2.106  c2.111-1.21,4.304-2.364,6.52-3.43c0.77-0.369,1.691-0.044,2.058,0.723c0.37,0.769,0.046,1.69-0.721,2.059  c-2.148,1.032-4.276,2.151-6.321,3.325C76.213,182.482,75.949,182.549,75.688,182.549z" fill="#F1F2F2"/><path d="M40.22,218.338c-0.249,0-0.5-0.062-0.735-0.188c-0.748-0.407-1.024-1.345-0.616-2.093  c6.965-12.795,17.291-24.044,29.861-32.529c0.707-0.479,1.666-0.291,2.141,0.414c0.478,0.705,0.291,1.665-0.415,2.141  c-12.161,8.213-22.147,19.088-28.877,31.45C41.298,218.047,40.769,218.338,40.22,218.338z" fill="#F1F2F2"/><g><path d="M162.371,205.37c0,20.409-10.768,38.298-26.927,48.315H235.61c-1.271-34.68-21.71-64.853-51.825-81.787   l16.052-22.234c1.206-1.67,0.829-4.008-0.843-5.212c-1.676-1.207-4.008-0.831-5.215,0.84l-16.082,22.276   c-0.208,0.292-0.354,0.605-0.471,0.928c-12.364-5.902-26.114-9.658-40.688-10.74C152.085,167.895,162.371,185.426,162.371,205.37z" fill="#9FB543"/></g><path d="M235.61,256H20.036c-0.628,0-1.23-0.256-1.666-0.709c-0.436-0.453-0.669-1.063-0.646-1.691  c1.244-33.957,20.406-64.736,51.414-82.822L54.87,151.019c-1.952-2.705-1.339-6.494,1.366-8.446  c1.042-0.748,2.264-1.142,3.537-1.142c1.939,0,3.773,0.938,4.906,2.509l15.354,21.269c14.985-6.701,31.053-10.097,47.79-10.097  c17.023,0,33.327,3.501,48.498,10.41l15.582-21.584c1.135-1.57,2.968-2.507,4.905-2.507c1.275,0,2.498,0.396,3.538,1.144  c1.311,0.945,2.174,2.344,2.433,3.939c0.257,1.596-0.121,3.194-1.064,4.504l-14.553,20.158  c30.609,18.139,49.527,48.77,50.761,82.424c0.022,0.629-0.21,1.238-0.646,1.691C236.841,255.744,236.239,256,235.61,256z   M22.468,251.371H233.18c-2.017-31.896-20.764-60.719-50.529-77.455c-0.572-0.324-0.982-0.877-1.124-1.521  c-0.142-0.643-0.001-1.316,0.384-1.851l16.052-22.234c0.22-0.307,0.31-0.683,0.249-1.058c-0.06-0.374-0.264-0.701-0.569-0.924  c-0.31-0.222-0.624-0.27-0.833-0.27c-0.463,0-0.882,0.215-1.154,0.589l-16.082,22.275c-0.051,0.072-0.108,0.192-0.172,0.366  c-0.224,0.612-0.694,1.103-1.299,1.35c-0.603,0.246-1.286,0.227-1.872-0.055c-15.077-7.196-31.363-10.846-48.406-10.846  c-16.729,0-32.755,3.528-47.633,10.486c-1.152,0.535-2.519,0.05-3.068-1.094c-0.031-0.066-0.063-0.137-0.107-0.199l-16.09-22.285  c-0.269-0.374-0.69-0.588-1.152-0.588c-0.209,0-0.522,0.048-0.834,0.27c-0.631,0.455-0.774,1.346-0.316,1.981L74.4,170.161  c0.388,0.536,0.527,1.214,0.381,1.86c-0.144,0.645-0.557,1.198-1.137,1.519C43.485,190.223,24.497,219.186,22.468,251.371z" fill="#594A42"/><circle cx="88.278" cy="203.363" fill="#594A42" r="10.277"/><circle cx="165.528" cy="203.363" fill="#594A42" r="10.276"/><g><path d="M92.379,219.879c7.847,11.342,21.302,23.414,36.216,23.395c14.914,0.021,28.369-12.053,36.217-23.395   C141.271,212.23,115.918,212.23,92.379,219.879z" fill="#594A42"/><path d="M128.634,245.587c0,0-0.039,0-0.043,0c-19.71,0-34.156-18.669-38.115-24.391   c-0.416-0.603-0.524-1.364-0.289-2.058c0.234-0.693,0.782-1.234,1.477-1.461c23.891-7.762,49.972-7.762,73.864,0   c0.693,0.227,1.242,0.768,1.477,1.461s0.125,1.457-0.29,2.058C162.756,226.918,148.305,245.587,128.634,245.587z M96.153,221.133   c7.667,10.011,19.649,19.826,32.405,19.826h0.075c12.752,0,24.735-9.815,32.402-19.826   C139.958,214.925,117.229,214.925,96.153,221.133z" fill="#594A42"/></g><g><g><g><path d="M112.173,238.779c3.066-5.975,9.281-10.07,16.468-10.07c7.186,0,13.4,4.096,16.468,10.07" fill="#DD5A4B"/><path d="M145.11,241.094c-0.841,0-1.651-0.459-2.061-1.258c-2.791-5.436-8.312-8.814-14.409-8.814     s-11.619,3.379-14.411,8.813c-0.582,1.136-1.979,1.583-3.113,1.002c-1.137-0.584-1.586-1.979-1.002-3.116     c3.587-6.986,10.684-11.326,18.526-11.326c7.841,0,14.94,4.34,18.525,11.329c0.584,1.138,0.136,2.53-1.003,3.114     C145.826,241.012,145.466,241.094,145.11,241.094z" fill="#DD5A4B"/></g><g><path d="M128.641,228.709c-7.187,0-13.401,4.096-16.468,10.07c5.108,2.889,10.674,4.719,16.468,4.711     c5.79,0.01,11.357-1.822,16.468-4.711C142.041,232.805,135.826,228.709,128.641,228.709z" fill="#DD5A4B"/><path d="M128.684,245.804C128.683,245.804,128.684,245.804,128.684,245.804h-0.046     c-5.812,0-11.724-1.687-17.605-5.011c-1.079-0.611-1.486-1.967-0.918-3.072c3.587-6.986,10.684-11.326,18.526-11.326     c7.841,0,14.94,4.34,18.525,11.329c0.567,1.104,0.16,2.459-0.92,3.069C140.363,244.118,134.454,245.804,128.684,245.804z      M115.416,237.875c4.465,2.193,8.892,3.301,13.188,3.301h0.079c4.292,0,8.716-1.107,13.181-3.299     c-3.009-4.277-7.897-6.855-13.223-6.855C123.313,231.021,118.427,233.6,115.416,237.875z" fill="#DD5A4B"/></g></g></g></svg>