<?xml version="1.0" encoding="UTF-8" standalone="no"?>
<svg
   xmlns:dc="http://purl.org/dc/elements/1.1/"
   xmlns:cc="http://creativecommons.org/ns#"
   xmlns:rdf="http://www.w3.org/1999/02/22-rdf-syntax-ns#"
   xmlns:svg="http://www.w3.org/2000/svg"
   xmlns="http://www.w3.org/2000/svg"
   xmlns:sodipodi="http://sodipodi.sourceforge.net/DTD/sodipodi-0.dtd"
   xmlns:inkscape="http://www.inkscape.org/namespaces/inkscape"
   enable-background="new 0 0 256 256"
   height="256px"
   id="Layer_1"
   version="1.1"
   viewBox="0 0 256 256"
   width="256px"
   xml:space="preserve"
   inkscape:version="0.91 r13725"
   sodipodi:docname="rating_okay.svg"
   inkscape:export-filename="C:\Users\Michael Pryor\Desktop\logo\other_icons\rating_okay.png"
   inkscape:export-xdpi="300"
   inkscape:export-ydpi="300"><metadata
     id="metadata3963"><rdf:RDF><cc:Work
         rdf:about=""><dc:format>image/svg+xml</dc:format><dc:type
           rdf:resource="http://purl.org/dc/dcmitype/StillImage" /></cc:Work></rdf:RDF></metadata><defs
     id="defs3961" /><sodipodi:namedview
     pagecolor="#ffffff"
     bordercolor="#666666"
     borderopacity="1"
     objecttolerance="10"
     gridtolerance="10"
     guidetolerance="10"
     inkscape:pageopacity="0"
     inkscape:pageshadow="2"
     inkscape:window-width="690"
     inkscape:window-height="480"
     id="namedview3959"
     showgrid="false"
     inkscape:zoom="0.921875"
     inkscape:cx="128"
     inkscape:cy="84.189534"
     inkscape:window-x="1871"
     inkscape:window-y="231"
     inkscape:window-maximized="0"
     inkscape:current-layer="Layer_1" /><path
     d="M183.938,171.899l16.052-22.233c1.205-1.672,0.829-4.007-0.843-5.214c-1.676-1.206-4.008-0.83-5.217,0.842  l-16.081,22.276c-0.208,0.29-0.353,0.604-0.47,0.927c-14.802-7.065-31.592-11.072-49.403-11.072  c-17.498,0-34.004,3.873-48.615,10.705c-0.091-0.191-0.195-0.382-0.325-0.561l-16.082-22.275c-1.205-1.672-3.537-2.047-5.211-0.844  c-1.674,1.207-2.051,3.543-0.844,5.213l15.778,21.854c-30.483,16.863-51.208,47.232-52.488,82.169h215.575  C234.492,219.007,214.053,188.834,183.938,171.899z"
     fill="#B6D152"
     id="path3943" /><path
     d="M75.841,182.55c-0.535,0-1.054-0.279-1.34-0.775c-0.423-0.74-0.167-1.683,0.571-2.106  c2.108-1.208,4.302-2.362,6.519-3.43c0.767-0.364,1.69-0.047,2.06,0.722c0.369,0.768,0.046,1.689-0.722,2.059  c-2.151,1.035-4.278,2.154-6.321,3.326C76.365,182.483,76.101,182.55,75.841,182.55z"
     fill="#F1F2F2"
     id="path3945" /><path
     d="M40.374,218.337c-0.25,0-0.502-0.061-0.736-0.188c-0.749-0.406-1.025-1.344-0.618-2.092  c6.966-12.795,17.292-24.043,29.862-32.531c0.706-0.477,1.666-0.291,2.141,0.415c0.477,0.706,0.291,1.665-0.416,2.142  c-12.162,8.213-22.148,19.088-28.877,31.449C41.45,218.046,40.92,218.337,40.374,218.337z"
     fill="#F1F2F2"
     id="path3947" /><g
     id="g3949"><path
       d="M162.522,205.372c0,20.408-10.767,38.297-26.925,48.313h100.165c-1.271-34.679-21.71-64.852-51.825-81.786   l16.052-22.233c1.205-1.672,0.829-4.007-0.843-5.214c-1.676-1.206-4.008-0.83-5.217,0.842l-16.081,22.276   c-0.208,0.29-0.353,0.604-0.47,0.927c-12.364-5.9-26.114-9.658-40.688-10.738C152.237,167.895,162.522,185.427,162.522,205.372z"
       fill="#9FB543"
       id="path3951" /></g><path
     d="M235.763,256H20.188c-0.628,0-1.23-0.256-1.666-0.708c-0.436-0.453-0.669-1.063-0.646-1.691  c1.245-33.957,20.406-64.734,51.414-82.82l-14.268-19.762c-0.946-1.311-1.324-2.91-1.066-4.505c0.258-1.595,1.122-2.994,2.433-3.94  c1.041-0.748,2.263-1.142,3.537-1.142c1.939,0,3.773,0.938,4.906,2.508l15.355,21.27c14.987-6.701,31.054-10.099,47.79-10.099  c17.022,0,33.329,3.502,48.499,10.411l15.58-21.582c1.135-1.569,2.969-2.508,4.906-2.508c1.275,0,2.499,0.396,3.537,1.142  c2.705,1.953,3.318,5.742,1.369,8.445l-14.554,20.158c30.608,18.138,49.528,48.77,50.762,82.424c0.023,0.628-0.21,1.238-0.646,1.691  C236.993,255.744,236.391,256,235.763,256z M22.62,251.372h210.711c-2.017-31.896-20.763-60.719-50.528-77.455  c-0.574-0.324-0.983-0.877-1.125-1.521c-0.142-0.643-0.002-1.316,0.383-1.851l16.053-22.233c0.458-0.635,0.314-1.524-0.321-1.983  c-0.31-0.222-0.622-0.269-0.831-0.269c-0.463,0-0.885,0.215-1.155,0.59l-16.081,22.275c-0.052,0.072-0.11,0.195-0.172,0.365  c-0.223,0.611-0.695,1.102-1.299,1.348c-0.605,0.248-1.284,0.229-1.871-0.053c-15.079-7.197-31.365-10.847-48.407-10.847  c-16.727,0-32.753,3.528-47.634,10.489c-1.149,0.535-2.52,0.047-3.067-1.098c-0.034-0.069-0.067-0.141-0.114-0.206l-16.083-22.276  c-0.27-0.375-0.689-0.588-1.152-0.588c-0.209,0-0.522,0.047-0.833,0.27c-0.304,0.22-0.508,0.549-0.568,0.923s0.028,0.75,0.25,1.058  l15.778,21.854c0.387,0.536,0.527,1.213,0.382,1.859c-0.145,0.646-0.559,1.199-1.138,1.52  C43.637,190.226,24.648,219.187,22.62,251.372z"
     fill="#594A42"
     id="path3953" /><circle
     cx="88.43"
     cy="203.363"
     fill="#594A42"
     r="10.277"
     id="circle3955" /><circle
     cx="165.68"
     cy="203.363"
     fill="#594A42"
     r="10.277"
     id="circle3957" /></svg>