<?xml version="1.0" encoding="UTF-8" standalone="no"?>
<svg
   xmlns:dc="http://purl.org/dc/elements/1.1/"
   xmlns:cc="http://creativecommons.org/ns#"
   xmlns:rdf="http://www.w3.org/1999/02/22-rdf-syntax-ns#"
   xmlns:svg="http://www.w3.org/2000/svg"
   xmlns="http://www.w3.org/2000/svg"
   xmlns:sodipodi="http://sodipodi.sourceforge.net/DTD/sodipodi-0.dtd"
   xmlns:inkscape="http://www.inkscape.org/namespaces/inkscape"
   enable-background="new 0 0 512 512"
   id="Layer_1"
   version="1.1"
   viewBox="0 0 512 512"
   xml:space="preserve"
   inkscape:version="0.91 r13725"
   sodipodi:docname="audio_problem.svg"
   inkscape:export-filename="C:\Users\Michael Pryor\Desktop\logo\other_icons\audio_problem.png"
   inkscape:export-xdpi="25"
   inkscape:export-ydpi="25"><metadata
     id="metadata19"><rdf:RDF><cc:Work
         rdf:about=""><dc:format>image/svg+xml</dc:format><dc:type
           rdf:resource="http://purl.org/dc/dcmitype/StillImage" /></cc:Work></rdf:RDF></metadata><defs
     id="defs17"><filter
       style="color-interpolation-filters:sRGB;"
       inkscape:label="Colorize"
       id="filter4147"><feComposite
         in2="SourceGraphic"
         operator="arithmetic"
         k1="0"
         k2="7.9"
         result="composite1"
         id="feComposite4149" /><feColorMatrix
         in="composite1"
         values="1"
         type="saturate"
         result="colormatrix1"
         id="feColorMatrix4151" /><feFlood
         flood-opacity="1"
         flood-color="rgb(255,51,11)"
         result="flood1"
         id="feFlood4153" /><feBlend
         in="flood1"
         in2="colormatrix1"
         mode="normal"
         result="blend1"
         id="feBlend4155" /><feBlend
         in2="blend1"
         mode="normal"
         result="blend2"
         id="feBlend4157" /><feColorMatrix
         in="blend2"
         values="1"
         type="saturate"
         result="colormatrix2"
         id="feColorMatrix4159" /><feComposite
         in="colormatrix2"
         in2="SourceGraphic"
         operator="in"
         k2="1"
         result="composite2"
         id="feComposite4161" /></filter></defs><sodipodi:namedview
     pagecolor="#ffffff"
     bordercolor="#666666"
     borderopacity="1"
     objecttolerance="10"
     gridtolerance="10"
     guidetolerance="10"
     inkscape:pageopacity="0"
     inkscape:pageshadow="2"
     inkscape:window-width="1920"
     inkscape:window-height="975"
     id="namedview15"
     showgrid="false"
     inkscape:zoom="0.4609375"
     inkscape:cx="256"
     inkscape:cy="256"
     inkscape:window-x="1672"
     inkscape:window-y="-8"
     inkscape:window-maximized="1"
     inkscape:current-layer="Layer_1" /><g
     id="g3"
     style="filter:url(#filter4147)"><path
       d="M91.1,365.5H10.5C4.7,365.5,0,360.8,0,355V157c0-5.8,4.7-10.5,10.5-10.5h80.6c5.8,0,10.5,4.7,10.5,10.5v198   C101.7,360.8,97,365.5,91.1,365.5z M21.1,344.4h59.5V167.6H21.1V344.4z"
       fill="#6A6E7C"
       id="path5" /><path
       d="M275.1,505.7c-2.3,0-4.5-0.7-6.4-2.2l-184-140.2c-2.6-2-4.2-5.1-4.2-8.4V157c0-3.3,1.5-6.4,4.2-8.4   l184-140.2c3.2-2.4,7.5-2.8,11.1-1.1c3.6,1.8,5.9,5.4,5.9,9.5v478.3c0,4-2.3,7.7-5.9,9.5C278.3,505.3,276.7,505.7,275.1,505.7z    M101.7,349.8l162.9,124.1V38.2L101.7,162.2V349.8z"
       fill="#6A6E7C"
       id="path7" /><g
       id="g9"><path
         d="M501.5,350.2c-2.7,0-5.4-1-7.5-3.1L326.6,179.8c-4.1-4.1-4.1-10.8,0-14.9c4.1-4.1,10.8-4.1,14.9,0    l167.4,167.4c4.1,4.1,4.1,10.8,0,14.9C506.9,349.2,504.2,350.2,501.5,350.2z"
         fill="#6A6E7C"
         id="path11" /><path
         d="M334.1,350.2c-2.7,0-5.4-1-7.5-3.1c-4.1-4.1-4.1-10.8,0-14.9L494,164.8c4.1-4.1,10.8-4.1,14.9,0    c4.1,4.1,4.1,10.8,0,14.9L341.5,347.2C339.5,349.2,336.8,350.2,334.1,350.2z"
         fill="#6A6E7C"
         id="path13" /></g></g></svg>