<?xml version="1.0" encoding="UTF-8" standalone="no"?>
<svg
   xmlns:dc="http://purl.org/dc/elements/1.1/"
   xmlns:cc="http://creativecommons.org/ns#"
   xmlns:rdf="http://www.w3.org/1999/02/22-rdf-syntax-ns#"
   xmlns:svg="http://www.w3.org/2000/svg"
   xmlns="http://www.w3.org/2000/svg"
   xmlns:sodipodi="http://sodipodi.sourceforge.net/DTD/sodipodi-0.dtd"
   xmlns:inkscape="http://www.inkscape.org/namespaces/inkscape"
   enable-background="new 0 0 512 512"
   id="Layer_1"
   version="1.1"
   viewBox="0 0 512 512"
   xml:space="preserve"
   inkscape:version="0.91 r13725"
   sodipodi:docname="fast_forward_audio.svg"
   inkscape:export-filename="C:\Users\Michael Pryor\Desktop\logo\other_icons\fast_forward_audio.png"
   inkscape:export-xdpi="25"
   inkscape:export-ydpi="25"><metadata
     id="metadata17"><rdf:RDF><cc:Work
         rdf:about=""><dc:format>image/svg+xml</dc:format><dc:type
           rdf:resource="http://purl.org/dc/dcmitype/StillImage" /></cc:Work></rdf:RDF></metadata><defs
     id="defs15"><filter
       style="color-interpolation-filters:sRGB;"
       inkscape:label="Colorize"
       id="filter4145"><feComposite
         in2="SourceGraphic"
         operator="arithmetic"
         k1="0"
         k2="7.9"
         result="composite1"
         id="feComposite4147" /><feColorMatrix
         in="composite1"
         values="1"
         type="saturate"
         result="colormatrix1"
         id="feColorMatrix4149" /><feFlood
         flood-opacity="1"
         flood-color="rgb(255,51,11)"
         result="flood1"
         id="feFlood4151" /><feBlend
         in="flood1"
         in2="colormatrix1"
         mode="normal"
         result="blend1"
         id="feBlend4153" /><feBlend
         in2="blend1"
         mode="normal"
         result="blend2"
         id="feBlend4155" /><feColorMatrix
         in="blend2"
         values="1"
         type="saturate"
         result="colormatrix2"
         id="feColorMatrix4157" /><feComposite
         in="colormatrix2"
         in2="SourceGraphic"
         operator="in"
         k2="1"
         result="composite2"
         id="feComposite4159" /></filter></defs><sodipodi:namedview
     pagecolor="#ffffff"
     bordercolor="#666666"
     borderopacity="1"
     objecttolerance="10"
     gridtolerance="10"
     guidetolerance="10"
     inkscape:pageopacity="0"
     inkscape:pageshadow="2"
     inkscape:window-width="1920"
     inkscape:window-height="975"
     id="namedview13"
     showgrid="false"
     inkscape:zoom="0.4609375"
     inkscape:cx="256"
     inkscape:cy="256"
     inkscape:window-x="1672"
     inkscape:window-y="-8"
     inkscape:window-maximized="1"
     inkscape:current-layer="Layer_1" /><g
     id="g3"
     style="filter:url(#filter4145)"><path
       d="M268.8,266.5c-2.6,0-5.3-1-7.3-3L7.5,18.1c-4.2-4-4.3-10.7-0.3-14.9C11.3-1,18-1.1,22.2,3l254,245.5   c4.2,4,4.3,10.7,0.3,14.9C274.4,265.5,271.6,266.5,268.8,266.5z"
       fill="#6A6E7C"
       id="path5" /><path
       d="M14.8,512c-2.8,0-5.5-1.1-7.6-3.2c-4-4.2-3.9-10.9,0.3-14.9l254-245.5c4.2-4,10.9-3.9,14.9,0.3   c4,4.2,3.9,10.9-0.3,14.9L22.2,509C20.1,511,17.5,512,14.8,512z"
       fill="#6A6E7C"
       id="path7" /><path
       d="M497.2,266.5c-2.6,0-5.3-1-7.3-3l-254-245.5c-4.2-4-4.3-10.7-0.3-14.9c4-4.2,10.7-4.3,14.9-0.3l254,245.5   c4.2,4,4.3,10.7,0.3,14.9C502.7,265.5,499.9,266.5,497.2,266.5z"
       fill="#6A6E7C"
       id="path9" /><path
       d="M243.2,512c-2.8,0-5.5-1.1-7.6-3.2c-4-4.2-3.9-10.9,0.3-14.9l254-245.5c4.2-4,10.9-3.9,14.9,0.3   c4,4.2,3.9,10.9-0.3,14.9L250.5,509C248.4,511,245.8,512,243.2,512z"
       fill="#6A6E7C"
       id="path11" /></g></svg>