<?xml version="1.0" encoding="UTF-8" standalone="no"?>
<svg
   xmlns:dc="http://purl.org/dc/elements/1.1/"
   xmlns:cc="http://creativecommons.org/ns#"
   xmlns:rdf="http://www.w3.org/1999/02/22-rdf-syntax-ns#"
   xmlns:svg="http://www.w3.org/2000/svg"
   xmlns="http://www.w3.org/2000/svg"
   xmlns:sodipodi="http://sodipodi.sourceforge.net/DTD/sodipodi-0.dtd"
   xmlns:inkscape="http://www.inkscape.org/namespaces/inkscape"
   enable-background="new 0 0 256 256"
   height="256px"
   id="Layer_1"
   version="1.1"
   viewBox="0 0 256 256"
   width="256px"
   xml:space="preserve"
   inkscape:version="0.91 r13725"
   sodipodi:docname="rating_block.svg"
   inkscape:export-filename="C:\Users\Michael Pryor\Desktop\logo\other_icons\rating_block.png"
   inkscape:export-xdpi="100"
   inkscape:export-ydpi="100"><metadata
     id="metadata31"><rdf:RDF><cc:Work
         rdf:about=""><dc:format>image/svg+xml</dc:format><dc:type
           rdf:resource="http://purl.org/dc/dcmitype/StillImage" /></cc:Work></rdf:RDF></metadata><defs
     id="defs29" /><sodipodi:namedview
     pagecolor="#ffffff"
     bordercolor="#666666"
     borderopacity="1"
     objecttolerance="10"
     gridtolerance="10"
     guidetolerance="10"
     inkscape:pageopacity="0"
     inkscape:pageshadow="2"
     inkscape:window-width="1920"
     inkscape:window-height="975"
     id="namedview27"
     showgrid="false"
     inkscape:zoom="0.921875"
     inkscape:cx="128"
     inkscape:cy="128"
     inkscape:window-x="1672"
     inkscape:window-y="-8"
     inkscape:window-maximized="1"
     inkscape:current-layer="Layer_1" /><path
     d="M184.412,171.898l16.053-22.233c1.207-1.672,0.83-4.009-0.842-5.213c-1.677-1.206-4.009-0.832-5.215,0.841  l-16.082,22.276c-0.21,0.292-0.355,0.605-0.471,0.927c-14.803-7.064-31.592-11.071-49.403-11.071  c-17.498,0-34.003,3.871-48.614,10.703c-0.091-0.191-0.195-0.381-0.325-0.559l-16.082-22.276c-1.206-1.673-3.538-2.046-5.214-0.844  c-1.673,1.207-2.049,3.542-0.842,5.216l15.777,21.852c-30.483,16.861-51.209,47.233-52.489,82.169h215.575  C234.967,219.005,214.529,188.833,184.412,171.898z"
     fill="#FB6E52"
     id="path3" /><path
     d="M76.318,182.549c-0.534,0-1.054-0.278-1.339-0.775c-0.424-0.738-0.168-1.682,0.57-2.106  c2.118-1.214,4.311-2.368,6.52-3.429c0.768-0.364,1.689-0.047,2.059,0.723c0.369,0.767,0.046,1.689-0.723,2.059  c-2.141,1.028-4.268,2.146-6.32,3.324C76.842,182.481,76.578,182.549,76.318,182.549z"
     fill="#F1F2F2"
     id="path5" /><path
     d="M40.85,218.337c-0.25,0-0.501-0.06-0.736-0.188c-0.749-0.408-1.025-1.345-0.617-2.092  c6.968-12.798,17.293-24.045,29.862-32.53c0.705-0.479,1.666-0.292,2.142,0.414s0.29,1.665-0.416,2.143  c-12.16,8.208-22.145,19.084-28.878,31.447C41.926,218.046,41.397,218.337,40.85,218.337z"
     fill="#F1F2F2"
     id="path7" /><g
     id="g9"><g
       id="g11"><g
         id="g13"><path
           d="M162.998,205.369c0,20.411-10.766,38.299-26.924,48.316h100.164     c-1.271-34.681-21.709-64.853-51.826-81.787l16.053-22.233c1.207-1.672,0.83-4.009-0.842-5.213     c-1.677-1.206-4.009-0.832-5.215,0.841l-16.082,22.276c-0.21,0.292-0.355,0.605-0.471,0.927     c-12.363-5.901-26.116-9.657-40.689-10.74C152.713,167.895,162.998,185.425,162.998,205.369z"
           fill="#DB5242"
           id="path15" /></g></g></g><path
     d="M236.238,256H20.664c-0.628,0-1.229-0.257-1.666-0.709c-0.436-0.451-0.67-1.062-0.646-1.69  c1.245-33.958,20.407-64.736,51.415-82.823l-14.268-19.76c-1.951-2.703-1.339-6.492,1.364-8.444c1.044-0.749,2.266-1.143,3.54-1.143  c1.94,0,3.773,0.938,4.906,2.509l15.355,21.267c14.984-6.699,31.052-10.095,47.789-10.095c17.022,0,33.327,3.5,48.497,10.409  l15.583-21.582c1.132-1.569,2.966-2.508,4.903-2.508c1.276,0,2.5,0.396,3.538,1.144c1.312,0.946,2.177,2.344,2.433,3.939  c0.26,1.597-0.121,3.196-1.066,4.504l-14.552,20.157c30.61,18.139,49.529,48.77,50.763,82.426c0.023,0.629-0.21,1.239-0.646,1.69  C237.469,255.743,236.867,256,236.238,256z M23.095,251.372h210.711c-2.016-31.897-20.764-60.72-50.528-77.457  c-0.573-0.322-0.983-0.875-1.126-1.52c-0.141-0.643-0.002-1.318,0.385-1.853l16.051-22.233c0.223-0.309,0.313-0.683,0.251-1.058  c-0.06-0.374-0.263-0.702-0.569-0.924c-0.311-0.223-0.624-0.27-0.834-0.27c-0.462,0-0.882,0.216-1.15,0.589l-16.083,22.275  c-0.054,0.075-0.111,0.194-0.17,0.356c-0.222,0.616-0.692,1.109-1.297,1.356c-0.604,0.25-1.285,0.232-1.876-0.051  c-15.08-7.197-31.366-10.846-48.407-10.846c-16.729,0-32.756,3.527-47.634,10.486c-1.145,0.535-2.517,0.049-3.065-1.094  c-0.033-0.068-0.064-0.139-0.11-0.201l-16.088-22.283c-0.27-0.375-0.689-0.589-1.153-0.589c-0.209,0-0.524,0.047-0.835,0.27  c-0.631,0.456-0.774,1.347-0.316,1.981l15.777,21.853c0.388,0.535,0.527,1.213,0.382,1.858c-0.144,0.646-0.559,1.199-1.138,1.52  C44.114,190.224,25.125,219.186,23.095,251.372z"
     fill="#594A42"
     id="path17" /><path
     d="M111.871,220.188c-0.485,0-0.979-0.091-1.456-0.286l-43.19-17.617c-1.972-0.804-2.919-3.054-2.114-5.027  c0.804-1.972,3.055-2.918,5.027-2.114l43.191,17.616c1.972,0.805,2.919,3.056,2.114,5.029  C114.833,219.284,113.391,220.188,111.871,220.188z"
     fill="#594A42"
     id="path19" /><path
     d="M104.2,221.874c0,6.199-5.026,11.223-11.224,11.223c-6.199,0-11.224-5.023-11.224-11.223  c0-6.201,5.025-11.226,11.224-11.226C99.174,210.648,104.2,215.673,104.2,221.874z"
     fill="#594A42"
     id="path21" /><path
     d="M142.725,220.188c-1.521,0-2.963-0.904-3.572-2.399c-0.805-1.974,0.142-4.225,2.113-5.029l43.191-17.616  c1.969-0.805,4.223,0.143,5.027,2.114c0.805,1.974-0.143,4.224-2.114,5.027l-43.19,17.617  C143.702,220.098,143.209,220.188,142.725,220.188z"
     fill="#594A42"
     id="path23" /><path
     d="M150.395,221.874c0,6.199,5.025,11.223,11.225,11.223c6.198,0,11.223-5.023,11.223-11.223  c0-6.201-5.024-11.226-11.223-11.226C155.42,210.648,150.395,215.673,150.395,221.874z"
     fill="#594A42"
     id="path25" /></svg>