<?xml version="1.0" encoding="UTF-8" standalone="no"?>
<svg
   xmlns:dc="http://purl.org/dc/elements/1.1/"
   xmlns:cc="http://creativecommons.org/ns#"
   xmlns:rdf="http://www.w3.org/1999/02/22-rdf-syntax-ns#"
   xmlns:svg="http://www.w3.org/2000/svg"
   xmlns="http://www.w3.org/2000/svg"
   xmlns:sodipodi="http://sodipodi.sourceforge.net/DTD/sodipodi-0.dtd"
   xmlns:inkscape="http://www.inkscape.org/namespaces/inkscape"
   enable-background="new 0 0 512 512"
   id="Layer_1"
   version="1.1"
   viewBox="0 0 512 512"
   xml:space="preserve"
   inkscape:version="0.91 r13725"
   sodipodi:docname="routed_through_server.svg"
   inkscape:export-filename="C:\Users\Michael Pryor\Desktop\logo\other_icons\routed_through_server.png"
   inkscape:export-xdpi="25"
   inkscape:export-ydpi="25"><metadata
     id="metadata19"><rdf:RDF><cc:Work
         rdf:about=""><dc:format>image/svg+xml</dc:format><dc:type
           rdf:resource="http://purl.org/dc/dcmitype/StillImage" /></cc:Work></rdf:RDF></metadata><defs
     id="defs17"><filter
       style="color-interpolation-filters:sRGB;"
       inkscape:label="Colorize"
       id="filter4147"><feComposite
         in2="SourceGraphic"
         operator="arithmetic"
         k1="0"
         k2="7.9"
         result="composite1"
         id="feComposite4149" /><feColorMatrix
         in="composite1"
         values="1"
         type="saturate"
         result="colormatrix1"
         id="feColorMatrix4151" /><feFlood
         flood-opacity="1"
         flood-color="rgb(255,51,11)"
         result="flood1"
         id="feFlood4153" /><feBlend
         in="flood1"
         in2="colormatrix1"
         mode="normal"
         result="blend1"
         id="feBlend4155" /><feBlend
         in2="blend1"
         mode="normal"
         result="blend2"
         id="feBlend4157" /><feColorMatrix
         in="blend2"
         values="1"
         type="saturate"
         result="colormatrix2"
         id="feColorMatrix4159" /><feComposite
         in="colormatrix2"
         in2="SourceGraphic"
         operator="in"
         k2="1"
         result="composite2"
         id="feComposite4161" /></filter></defs><sodipodi:namedview
     pagecolor="#ffffff"
     bordercolor="#666666"
     borderopacity="1"
     objecttolerance="10"
     gridtolerance="10"
     guidetolerance="10"
     inkscape:pageopacity="0"
     inkscape:pageshadow="2"
     inkscape:window-width="1920"
     inkscape:window-height="975"
     id="namedview15"
     showgrid="false"
     inkscape:zoom="0.4609375"
     inkscape:cx="-68.338983"
     inkscape:cy="256"
     inkscape:window-x="1672"
     inkscape:window-y="-8"
     inkscape:window-maximized="1"
     inkscape:current-layer="Layer_1" /><g
     id="g3"
     style="filter:url(#filter4147)"><path
       d="M94,350c-51.8,0-94-42.2-94-94c0-51.8,42.2-94,94-94c51.8,0,94,42.2,94,94C188,307.8,145.8,350,94,350z    M94,183.1c-40.2,0-72.9,32.7-72.9,72.9c0,40.2,32.7,72.9,72.9,72.9c40.2,0,72.9-32.7,72.9-72.9C166.9,215.8,134.2,183.1,94,183.1z   "
       fill="#6A6E7C"
       id="path5" /><path
       d="M418,196.3c-51.8,0-94-42.2-94-94c0-51.8,42.2-94,94-94c51.8,0,94,42.2,94,94   C512,154.1,469.8,196.3,418,196.3z M418,29.4c-40.2,0-72.9,32.7-72.9,72.9c0,40.2,32.7,72.9,72.9,72.9s72.9-32.7,72.9-72.9   C490.9,62.1,458.2,29.4,418,29.4z"
       fill="#6A6E7C"
       id="path7" /><path
       d="M418,503.7c-51.8,0-94-42.2-94-94c0-51.8,42.2-94,94-94c51.8,0,94,42.2,94,94   C512,461.5,469.8,503.7,418,503.7z M418,336.8c-40.2,0-72.9,32.7-72.9,72.9c0,40.2,32.7,72.9,72.9,72.9s72.9-32.7,72.9-72.9   C490.9,369.5,458.2,336.8,418,336.8z"
       fill="#6A6E7C"
       id="path9" /><path
       d="M161.7,217.8c-4,0-7.9-2.3-9.6-6.3c-2.4-5.3,0-11.6,5.3-13.9l172.8-76.9c5.3-2.4,11.6,0,13.9,5.3   c2.4,5.3,0,11.6-5.3,13.9L166,216.9C164.6,217.5,163.2,217.8,161.7,217.8z"
       fill="#6A6E7C"
       id="path11" /><path
       d="M334.6,392.2c-1.5,0-3-0.3-4.4-1L159,311.9c-5.3-2.4-7.6-8.7-5.1-14s8.7-7.6,14-5.1L339,372.1   c5.3,2.4,7.6,8.7,5.1,14C342.3,389.9,338.5,392.2,334.6,392.2z"
       fill="#6A6E7C"
       id="path13" /></g></svg>