<?xml version="1.0" encoding="UTF-8" standalone="no"?>
<svg
   xmlns:dc="http://purl.org/dc/elements/1.1/"
   xmlns:cc="http://creativecommons.org/ns#"
   xmlns:rdf="http://www.w3.org/1999/02/22-rdf-syntax-ns#"
   xmlns:svg="http://www.w3.org/2000/svg"
   xmlns="http://www.w3.org/2000/svg"
   xmlns:sodipodi="http://sodipodi.sourceforge.net/DTD/sodipodi-0.dtd"
   xmlns:inkscape="http://www.inkscape.org/namespaces/inkscape"
   enable-background="new 0 0 512 512"
   id="Layer_1"
   version="1.1"
   viewBox="0 0 512 512"
   xml:space="preserve"
   inkscape:version="0.91 r13725"
   sodipodi:docname="video_problem.svg"
   inkscape:export-filename="C:\Users\Michael Pryor\Desktop\logo\other_icons\video_problem.png"
   inkscape:export-xdpi="25"
   inkscape:export-ydpi="25"><metadata
     id="metadata15"><rdf:RDF><cc:Work
         rdf:about=""><dc:format>image/svg+xml</dc:format><dc:type
           rdf:resource="http://purl.org/dc/dcmitype/StillImage" /></cc:Work></rdf:RDF></metadata><defs
     id="defs13"><filter
       style="color-interpolation-filters:sRGB;"
       inkscape:label="Colorize"
       id="filter4143"><feComposite
         in2="SourceGraphic"
         operator="arithmetic"
         k1="0"
         k2="7.9"
         result="composite1"
         id="feComposite4145" /><feColorMatrix
         in="composite1"
         values="1"
         type="saturate"
         result="colormatrix1"
         id="feColorMatrix4147" /><feFlood
         flood-opacity="1"
         flood-color="rgb(255,51,11)"
         result="flood1"
         id="feFlood4149" /><feBlend
         in="flood1"
         in2="colormatrix1"
         mode="normal"
         result="blend1"
         id="feBlend4151" /><feBlend
         in2="blend1"
         mode="normal"
         result="blend2"
         id="feBlend4153" /><feColorMatrix
         in="blend2"
         values="1"
         type="saturate"
         result="colormatrix2"
         id="feColorMatrix4155" /><feComposite
         in="colormatrix2"
         in2="SourceGraphic"
         operator="in"
         k2="1"
         result="composite2"
         id="feComposite4157" /></filter></defs><sodipodi:namedview
     pagecolor="#ffffff"
     bordercolor="#666666"
     borderopacity="1"
     objecttolerance="10"
     gridtolerance="10"
     guidetolerance="10"
     inkscape:pageopacity="0"
     inkscape:pageshadow="2"
     inkscape:window-width="1920"
     inkscape:window-height="975"
     id="namedview11"
     showgrid="false"
     inkscape:zoom="0.4609375"
     inkscape:cx="256"
     inkscape:cy="256"
     inkscape:window-x="1672"
     inkscape:window-y="-8"
     inkscape:window-maximized="1"
     inkscape:current-layer="Layer_1" /><g
     id="g3"
     style="filter:url(#filter4143)"><path
       d="M185.9,272.4c-57.4,0-104.1-46.7-104.1-104.1S128.5,64.2,185.9,64.2S290,110.9,290,168.3   S243.3,272.4,185.9,272.4z M185.9,85.3c-45.8,0-83,37.2-83,83s37.2,83,83,83s83-37.2,83-83S231.7,85.3,185.9,85.3z"
       fill="#6A6E7C"
       id="path5" /><path
       d="M361.3,447.8c-5.8,0-10.5-4.7-10.5-10.5c0-90.9-73.9-164.8-164.8-164.8S21.1,346.3,21.1,437.2   c0,5.8-4.7,10.5-10.5,10.5S0,443,0,437.2c0-102.5,83.4-185.9,185.9-185.9s185.9,83.4,185.9,185.9   C371.8,443,367.1,447.8,361.3,447.8z"
       fill="#6A6E7C"
       id="path7" /><path
       d="M501.5,239.7H337.8c-5.8,0-10.5-4.7-10.5-10.5s4.7-10.5,10.5-10.5h163.7c5.8,0,10.5,4.7,10.5,10.5   S507.3,239.7,501.5,239.7z"
       fill="#6A6E7C"
       id="path9" /></g></svg>